grf
version=1
nRows=26
nColumns=19
inDegrees=yes
endheader
time	ground_force_1_vx	ground_force_1_vy	ground_force_1_vz	ground_force_1_px	ground_force_1_py	ground_force_1_pz	ground_moment_1_mx	ground_moment_1_my	ground_moment_1_mz	ground_force_2_vx	ground_force_2_vy	ground_force_2_vz	ground_force_2_px	ground_force_2_py	ground_force_2_pz	ground_moment_2_mx	ground_moment_2_my	ground_moment_2_mz
3.860000	25.646480	993.494343	-291.424919	0.131371	0.000000	-0.792703	0.000000	8.451722	0.000000	-8.985127	1103.096246	349.456884	0.170386	0.000000	-1.576816	-0.000000	-6.993614	-0.000000
3.861000	25.289878	988.376866	-289.189170	0.131524	0.000000	-0.792972	0.000000	8.377272	0.000000	-8.614063	1097.669433	347.255400	0.169399	0.000000	-1.576591	-0.000000	-6.947074	-0.000000
3.862000	24.919866	983.498988	-287.059759	0.130116	0.000000	-0.794479	0.000000	8.302363	0.000000	-8.250115	1092.190211	345.028647	0.169875	0.000000	-1.575837	-0.000000	-6.901837	-0.000000
3.863000	24.538346	978.870336	-285.040257	0.130105	0.000000	-0.792537	0.000000	8.227084	0.000000	-7.893715	1086.663855	342.779563	0.169690	0.000000	-1.575605	-0.000000	-6.858147	-0.000000
3.864000	24.147040	974.499603	-283.134006	0.131232	0.000000	-0.793198	0.000000	8.151560	0.000000	-7.545429	1081.095545	340.511187	0.169034	0.000000	-1.576152	-0.000000	-6.816256	-0.000000
3.865000	23.747587	970.394635	-281.344078	0.131403	0.000000	-0.792614	0.000000	8.075952	0.000000	-7.205925	1075.491253	338.226672	0.168872	0.000000	-1.575858	-0.000000	-6.776416	-0.000000
3.866000	23.341628	966.562856	-279.673239	0.130811	0.000000	-0.792232	0.000000	8.000435	0.000000	-6.876009	1069.858225	335.929336	0.169333	0.000000	-1.576160	-0.000000	-6.738872	-0.000000
3.867000	22.930899	963.011329	-278.123911	0.131048	0.000000	-0.793095	0.000000	7.925158	0.000000	-6.556665	1064.204682	333.622693	0.168987	0.000000	-1.575300	-0.000000	-6.703848	-0.000000
3.868000	22.517300	959.746508	-276.698127	0.130191	0.000000	-0.793673	0.000000	7.850229	0.000000	-6.248974	1058.539519	331.310475	0.171175	0.000000	-1.574540	-0.000000	-6.671549	-0.000000
3.869000	22.102879	956.773926	-275.397415	0.130974	0.000000	-0.792701	0.000000	7.775726	0.000000	-5.954035	1052.872696	328.996674	0.167917	0.000000	-1.575228	-0.000000	-6.642135	-0.000000
3.870000	21.689768	954.097933	-274.222739	0.129955	0.000000	-0.792148	0.000000	7.701740	0.000000	-5.673029	1047.215597	326.685563	0.168914	0.000000	-1.574747	-0.000000	-6.615692	-0.000000
3.871000	21.280140	951.721457	-273.174541	0.130920	0.000000	-0.793220	0.000000	7.628394	0.000000	-5.407344	1041.580349	324.381726	0.167778	0.000000	-1.574237	-0.000000	-6.592232	-0.000000
3.872000	20.876227	949.645788	-272.252775	0.129226	0.000000	-0.791647	0.000000	7.555833	0.000000	-5.158659	1035.978818	322.090060	0.166833	0.000000	-1.574109	-0.000000	-6.571707	-0.000000
3.873000	20.480342	947.870445	-271.456892	0.130340	0.000000	-0.793820	0.000000	7.484230	0.000000	-4.928928	1030.422291	319.815706	0.166745	0.000000	-1.574180	-0.000000	-6.554032	-0.000000
3.874000	20.094861	946.393270	-270.785811	0.130473	0.000000	-0.793732	0.000000	7.413790	0.000000	-4.720317	1024.921648	317.564011	0.167290	0.000000	-1.574602	-0.000000	-6.539113	-0.000000
3.875000	19.722192	945.210565	-270.237919	0.130844	0.000000	-0.794337	0.000000	7.344725	0.000000	-4.535152	1019.487672	315.340593	0.166700	0.000000	-1.574088	-0.000000	-6.526868	-0.000000
3.876000	19.364728	944.317005	-269.811114	0.130668	0.000000	-0.795990	0.000000	7.277238	0.000000	-4.375877	1014.131245	313.151442	0.166664	0.000000	-1.573757	-0.000000	-6.517221	-0.000000
3.877000	19.024810	943.705759	-269.502866	0.129975	0.000000	-0.792888	0.000000	7.211516	0.000000	-4.244916	1008.863017	311.002933	0.166322	0.000000	-1.573433	-0.000000	-6.510083	-0.000000
3.878000	18.704705	943.368983	-269.310242	0.130167	0.000000	-0.793279	0.000000	7.147733	0.000000	-4.144536	1003.693310	308.901747	0.166139	0.000000	-1.573498	-0.000000	-6.505342	-0.000000
3.879000	18.406568	943.298034	-269.229953	0.130442	0.000000	-0.794433	0.000000	7.086058	0.000000	-4.076805	998.632903	306.854762	0.165596	0.000000	-1.574064	-0.000000	-6.502868	-0.000000
3.880000	18.132416	943.483459	-269.258435	0.130314	0.000000	-0.793926	0.000000	7.026671	0.000000	-4.043631	993.693538	304.868989	0.166099	0.000000	-1.573472	-0.000000	-6.502545	-0.000000
3.881000	17.884058	943.915273	-269.391924	0.130716	0.000000	-0.794933	0.000000	6.969754	0.000000	-4.046797	988.887574	302.951544	0.165716	0.000000	-1.573523	-0.000000	-6.504285	-0.000000
3.882000	17.662997	944.583477	-269.626531	0.130225	0.000000	-0.793438	0.000000	6.915476	0.000000	-4.087977	984.227737	301.109626	0.166288	0.000000	-1.573597	-0.000000	-6.508031	-0.000000
3.883000	17.470297	945.478330	-269.958320	0.132249	0.000000	-0.793505	0.000000	6.863993	0.000000	-4.168713	979.727323	299.350468	0.165737	0.000000	-1.573515	0.000000	-6.513738	-0.000000
3.884000	17.306430	946.590577	-270.383355	0.130228	0.000000	-0.795496	0.000000	6.815455	0.000000	-4.290372	975.400368	297.681260	0.166623	0.000000	-1.571839	0.000000	-6.521356	-0.000000
3.885000	17.171219	947.911915	-270.897714	0.130118	0.000000	-0.793868	0.000000	6.770004	0.000000	-4.454049	971.261444	296.109089	0.166016	0.000000	-1.573082	0.000000	-6.530815	-0.000000
